<svg xmlns="http://www.w3.org/2000/svg" xmlns:xlink="http://www.w3.org/1999/xlink" version="1.1" class="marks" width="635" height="330" viewBox="0 0 635 330"><rect width="635" height="330" fill="#FFFFFF"/><g fill="none" stroke-miterlimit="10" transform="translate(15,5)"><g class="mark-group role-frame root" role="graphics-object" aria-roledescription="group mark container"><g transform="translate(0,0)"><path class="background" aria-hidden="true" d="M0,0h560v320h-560Z"/><g><g class="mark-shape role-mark layer_0_marks" role="graphics-symbol" aria-roledescription="shape mark container"/><g class="mark-symbol role-mark layer_1_marks" role="graphics-object" aria-roledescription="symbol mark container"><path aria-label="lon: 2.35; lat: 48.85; value: 42" role="graphics-symbol" aria-roledescription="circle" transform="translate(250.2105356407132,62.01485759463495)" d="M7.277,0A7.277,7.277,0,1,1,-7.277,0A7.277,7.277,0,1,1,7.277,0" fill="rgb(161, 202, 255)" stroke="white" stroke-width="0.6" opacity="0.85"/><path aria-label="lon: −74; lat: 40.71; value: 88" role="graphics-symbol" aria-roledescription="circle" transform="translate(95.9727917361815,82.45132446960444)" d="M10,0A10,10,0,1,1,-10,0A10,10,0,1,1,10,0" fill="rgb(10, 77, 160)" stroke="white" stroke-width="0.6" opacity="0.85"/><path aria-label="lon: 139.69; lat: 35.68; value: 75" role="graphics-symbol" aria-roledescription="circle" transform="translate(534.1317306288256,95.27016212583568)" d="M9.312,0A9.312,9.312,0,1,1,-9.312,0A9.312,9.312,0,1,1,9.312,0" fill="rgb(1, 116, 242)" stroke="white" stroke-width="0.6" opacity="0.85"/><path aria-label="lon: −46.63; lat: −23.55; value: 60" role="graphics-symbol" aria-roledescription="circle" transform="translate(145.75576587129342,246.46947810592013)" d="M8.448,0A8.448,8.448,0,1,1,-8.448,0A8.448,8.448,0,1,1,8.448,0" fill="rgb(55, 151, 255)" stroke="white" stroke-width="0.6" opacity="0.85"/><path aria-label="lon: 31.24; lat: 30.04; value: 35" role="graphics-symbol" aria-roledescription="circle" transform="translate(311.4217138682186,109.71250535215556)" d="M6.767,0A6.767,6.767,0,1,1,-6.767,0A6.767,6.767,0,1,1,6.767,0" fill="rgb(198, 222, 255)" stroke="white" stroke-width="0.6" opacity="0.85"/><path aria-label="lon: 151.21; lat: −33.87; value: 50" role="graphics-symbol" aria-roledescription="circle" transform="translate(560,272.91148784723924)" d="M7.819,0A7.819,7.819,0,1,1,-7.819,0A7.819,7.819,0,1,1,7.819,0" fill="rgb(118, 178, 255)" stroke="white" stroke-width="0.6" opacity="0.85"/><path aria-label="lon: 18.42; lat: −33.92; value: 28" role="graphics-symbol" aria-roledescription="circle" transform="translate(283.93720581050957,273.03947761880465)" d="M6.216,0A6.216,6.216,0,1,1,-6.216,0A6.216,6.216,0,1,1,6.216,0" fill="rgb(234, 243, 255)" stroke="white" stroke-width="0.6" opacity="0.85"/><path aria-label="lon: 72.88; lat: 19.08; value: 66" role="graphics-symbol" aria-roledescription="circle" transform="translate(403.23266641993104,137.7788234990968)" d="M8.803,0A8.803,8.803,0,1,1,-8.803,0A8.803,8.803,0,1,1,8.803,0" fill="rgb(33, 138, 255)" stroke="white" stroke-width="0.6" opacity="0.85"/><path aria-label="lon: −99.13; lat: 19.43; value: 54" role="graphics-symbol" aria-roledescription="circle" transform="translate(31.449862722202568,136.88408554765556)" d="M8.076,0A8.076,8.076,0,1,1,-8.076,0A8.076,8.076,0,1,1,8.076,0" fill="rgb(93, 167, 255)" stroke="white" stroke-width="0.6" opacity="0.85"/><path aria-label="lon: 37.62; lat: 55.75; value: 47" role="graphics-symbol" aria-roledescription="circle" transform="translate(315.5324737192083,45.2202665396571)" d="M7.62,0A7.62,7.62,0,1,1,-7.62,0A7.62,7.62,0,1,1,7.62,0" fill="rgb(135, 187, 255)" stroke="white" stroke-width="0.6" opacity="0.85"/><path aria-label="lon: 3.38; lat: 6.52; value: 40" role="graphics-symbol" aria-roledescription="circle" transform="translate(253.0708925050458,169.8125882755608)" d="M7.135,0A7.135,7.135,0,1,1,-7.135,0A7.135,7.135,0,1,1,7.135,0" fill="rgb(172, 208, 255)" stroke="white" stroke-width="0.6" opacity="0.85"/><path aria-label="lon: −118.24; lat: 34.05; value: 70" role="graphics-symbol" aria-roledescription="circle" transform="translate(2.842170943040401e-14,99.4398067498259)" d="M9.033,0A9.033,9.033,0,1,1,-9.033,0A9.033,9.033,0,1,1,9.033,0" fill="rgb(16, 129, 255)" stroke="white" stroke-width="0.6" opacity="0.85"/><path aria-label="lon: 103.82; lat: 1.35; value: 58" role="graphics-symbol" aria-roledescription="circle" transform="translate(473.99530107974846,182.97090056826173)" d="M8.326,0A8.326,8.326,0,1,1,-8.326,0A8.326,8.326,0,1,1,8.326,0" fill="rgb(62, 155, 255)" stroke="white" stroke-width="0.6" opacity="0.85"/><path aria-label="lon: −0.13; lat: 51.51; value: 64" role="graphics-symbol" aria-roledescription="circle" transform="translate(245.40254853397332,55.469464691885406)" d="M8.686,0A8.686,8.686,0,1,1,-8.686,0A8.686,8.686,0,1,1,8.686,0" fill="rgb(40, 142, 255)" stroke="white" stroke-width="0.6" opacity="0.85"/><path aria-label="lon: −58.38; lat: −34.6; value: 44" role="graphics-symbol" aria-roledescription="circle" transform="translate(124.60300478465246,274.77973346034287)" d="M7.416,0A7.416,7.416,0,1,1,-7.416,0A7.416,7.416,0,1,1,7.416,0" fill="rgb(151, 196, 255)" stroke="white" stroke-width="0.6" opacity="0.85"/></g><g class="mark-group role-legend" role="graphics-symbol" aria-roledescription="legend" aria-label="Symbol legend titled 'Value' for size and fill color with values from 0 to 88"><g transform="translate(578,0)"><path class="background" aria-hidden="true" d="M0,0h37v102h-37Z" pointer-events="none"/><g><g class="mark-group role-legend-entry"><g transform="translate(0,16)"><path class="background" aria-hidden="true" d="M0,0h0v0h0Z" pointer-events="none"/><g><g class="mark-group role-scope" role="graphics-object" aria-roledescription="group mark container"><g transform="translate(0,0)"><path class="background" aria-hidden="true" d="M0,0h36.23046875v10h-36.23046875Z" pointer-events="none" opacity="1"/><g><g class="mark-symbol role-legend-symbol" pointer-events="none"><path transform="translate(10.5,5)" d="M3.162,0A3.162,3.162,0,1,1,-3.162,0A3.162,3.162,0,1,1,3.162,0" fill="rgb(255, 255, 255)" stroke-width="1.5" opacity="1"/></g><g class="mark-text role-legend-label" pointer-events="none"><text text-anchor="start" transform="translate(25,8)" font-family="Roboto" font-size="10px" fill="#1D1D1F" opacity="1">0</text></g></g><path class="foreground" aria-hidden="true" d="" pointer-events="none" display="none"/></g><g transform="translate(0,12)"><path class="background" aria-hidden="true" d="M0,0h36.23046875v12.018563713009524h-36.23046875Z" pointer-events="none" opacity="1"/><g><g class="mark-symbol role-legend-symbol" pointer-events="none"><path transform="translate(10.5,6.5)" d="M5.519,0A5.519,5.519,0,1,1,-5.519,0A5.519,5.519,0,1,1,5.519,0" fill="rgb(255, 255, 255)" stroke-width="1.5" opacity="1"/></g><g class="mark-text role-legend-label" pointer-events="none"><text text-anchor="start" transform="translate(25,9.5)" font-family="Roboto" font-size="10px" fill="#1D1D1F" opacity="1">20</text></g></g><path class="foreground" aria-hidden="true" d="" pointer-events="none" display="none"/></g><g transform="translate(0,27)"><path class="background" aria-hidden="true" d="M0,0h36.23046875v15.135060680126756h-36.23046875Z" pointer-events="none" opacity="1"/><g><g class="mark-symbol role-legend-symbol" pointer-events="none"><path transform="translate(10.5,8)" d="M7.135,0A7.135,7.135,0,1,1,-7.135,0A7.135,7.135,0,1,1,7.135,0" fill="rgb(172, 208, 255)" stroke-width="1.5" opacity="1"/></g><g class="mark-text role-legend-label" pointer-events="none"><text text-anchor="start" transform="translate(25,11)" font-family="Roboto" font-size="10px" fill="#1D1D1F" opacity="1">40</text></g></g><path class="foreground" aria-hidden="true" d="" pointer-events="none" display="none"/></g><g transform="translate(0,45)"><path class="background" aria-hidden="true" d="M0,0h36.23046875v17.947700063546073h-36.23046875Z" pointer-events="none" opacity="1"/><g><g class="mark-symbol role-legend-symbol" pointer-events="none"><path transform="translate(10.5,9.5)" d="M8.448,0A8.448,8.448,0,1,1,-8.448,0A8.448,8.448,0,1,1,8.448,0" fill="rgb(55, 151, 255)" stroke-width="1.5" opacity="1"/></g><g class="mark-text role-legend-label" pointer-events="none"><text text-anchor="start" transform="translate(25,12.5)" font-family="Roboto" font-size="10px" fill="#1D1D1F" opacity="1">60</text></g></g><path class="foreground" aria-hidden="true" d="" pointer-events="none" display="none"/></g><g transform="translate(0,65)"><path class="background" aria-hidden="true" d="M0,0h36.23046875v20.08218043131008h-36.23046875Z" pointer-events="none" opacity="1"/><g><g class="mark-symbol role-legend-symbol" pointer-events="none"><path transform="translate(10.5,10.5)" d="M9.582,0A9.582,9.582,0,1,1,-9.582,0A9.582,9.582,0,1,1,9.582,0" fill="rgb(5, 101, 210)" stroke-width="1.5" opacity="1"/></g><g class="mark-text role-legend-label" pointer-events="none"><text text-anchor="start" transform="translate(25,13.5)" font-family="Roboto" font-size="10px" fill="#1D1D1F" opacity="1">80</text></g></g><path class="foreground" aria-hidden="true" d="" pointer-events="none" display="none"/></g></g></g><path class="foreground" aria-hidden="true" d="" pointer-events="none" display="none"/></g></g><g class="mark-text role-legend-title" pointer-events="none"><text text-anchor="start" transform="translate(0,9)" font-family="Roboto" font-size="11px" font-weight="bold" fill="#1D1D1F" opacity="1">Value</text></g></g><path class="foreground" aria-hidden="true" d="" pointer-events="none" display="none"/></g></g></g><path class="foreground" aria-hidden="true" d="" display="none"/></g></g></g></svg>