<svg role="img" aria-label="Interpolated heatmap" xmlns="http://www.w3.org/2000/svg" width="360" height="360" viewBox="0 0 360 360"><title>Interpolated heatmap</title><desc>Smoothly interpolated raster (imshow) via a Gaussian-blur filter, house blue ramp.</desc>
  <defs><filter id="smooth" x="-10%" y="-10%" width="120%" height="120%"><feGaussianBlur stdDeviation="24.0"/></filter></defs>
  <g filter="url(#smooth)"><rect x="0" y="0" width="30" height="30" fill="#e8f2ff"/><rect x="30" y="0" width="30" height="30" fill="#e5f0ff"/><rect x="60" y="0" width="30" height="30" fill="#e0eeff"/><rect x="90" y="0" width="30" height="30" fill="#dcebff"/><rect x="120" y="0" width="30" height="30" fill="#dcebff"/><rect x="150" y="0" width="30" height="30" fill="#e0eeff"/><rect x="180" y="0" width="30" height="30" fill="#e5f0ff"/><rect x="210" y="0" width="30" height="30" fill="#e8f2ff"/><rect x="240" y="0" width="30" height="30" fill="#eaf3ff"/><rect x="270" y="0" width="30" height="30" fill="#eaf3ff"/><rect x="300" y="0" width="30" height="30" fill="#eaf3ff"/><rect x="330" y="0" width="30" height="30" fill="#eaf3ff"/><rect x="0" y="30" width="30" height="30" fill="#e4f0ff"/><rect x="30" y="30" width="30" height="30" fill="#daeaff"/><rect x="60" y="30" width="30" height="30" fill="#cbe1ff"/><rect x="90" y="30" width="30" height="30" fill="#bfdaff"/><rect x="120" y="30" width="30" height="30" fill="#bfdaff"/><rect x="150" y="30" width="30" height="30" fill="#cbe1ff"/><rect x="180" y="30" width="30" height="30" fill="#daeaff"/><rect x="210" y="30" width="30" height="30" fill="#e4f0ff"/><rect x="240" y="30" width="30" height="30" fill="#e8f2ff"/><rect x="270" y="30" width="30" height="30" fill="#eaf3ff"/><rect x="300" y="30" width="30" height="30" fill="#eaf3ff"/><rect x="330" y="30" width="30" height="30" fill="#eaf3ff"/><rect x="0" y="60" width="30" height="30" fill="#dcebff"/><rect x="30" y="60" width="30" height="30" fill="#c5deff"/><rect x="60" y="60" width="30" height="30" fill="#a2cbff"/><rect x="90" y="60" width="30" height="30" fill="#79b6ff"/><rect x="120" y="60" width="30" height="30" fill="#79b6ff"/><rect x="150" y="60" width="30" height="30" fill="#a2cbff"/><rect x="180" y="60" width="30" height="30" fill="#c5deff"/><rect x="210" y="60" width="30" height="30" fill="#dcebff"/><rect x="240" y="60" width="30" height="30" fill="#e6f1ff"/><rect x="270" y="60" width="30" height="30" fill="#e9f3ff"/><rect x="300" y="60" width="30" height="30" fill="#eaf3ff"/><rect x="330" y="60" width="30" height="30" fill="#eaf3ff"/><rect x="0" y="90" width="30" height="30" fill="#d4e6ff"/><rect x="30" y="90" width="30" height="30" fill="#add1ff"/><rect x="60" y="90" width="30" height="30" fill="#5ba9ff"/><rect x="90" y="90" width="30" height="30" fill="#2575d1"/><rect x="120" y="90" width="30" height="30" fill="#2575d1"/><rect x="150" y="90" width="30" height="30" fill="#5ba9ff"/><rect x="180" y="90" width="30" height="30" fill="#add1ff"/><rect x="210" y="90" width="30" height="30" fill="#d3e6ff"/><rect x="240" y="90" width="30" height="30" fill="#e4f0ff"/><rect x="270" y="90" width="30" height="30" fill="#e9f2ff"/><rect x="300" y="90" width="30" height="30" fill="#eaf3ff"/><rect x="330" y="90" width="30" height="30" fill="#eaf3ff"/><rect x="0" y="120" width="30" height="30" fill="#d0e4ff"/><rect x="30" y="120" width="30" height="30" fill="#a2cbff"/><rect x="60" y="120" width="30" height="30" fill="#3b97fa"/><rect x="90" y="120" width="30" height="30" fill="#0a4da0"/><rect x="120" y="120" width="30" height="30" fill="#0a4da0"/><rect x="150" y="120" width="30" height="30" fill="#3b96f9"/><rect x="180" y="120" width="30" height="30" fill="#a1caff"/><rect x="210" y="120" width="30" height="30" fill="#cde3ff"/><rect x="240" y="120" width="30" height="30" fill="#e0edff"/><rect x="270" y="120" width="30" height="30" fill="#e6f1ff"/><rect x="300" y="120" width="30" height="30" fill="#e9f2ff"/><rect x="330" y="120" width="30" height="30" fill="#eaf3ff"/><rect x="0" y="150" width="30" height="30" fill="#d4e6ff"/><rect x="30" y="150" width="30" height="30" fill="#add1ff"/><rect x="60" y="150" width="30" height="30" fill="#5ba9ff"/><rect x="90" y="150" width="30" height="30" fill="#2575d1"/><rect x="120" y="150" width="30" height="30" fill="#2475d0"/><rect x="150" y="150" width="30" height="30" fill="#58a7ff"/><rect x="180" y="150" width="30" height="30" fill="#a7cdff"/><rect x="210" y="150" width="30" height="30" fill="#c6dfff"/><rect x="240" y="150" width="30" height="30" fill="#d3e6ff"/><rect x="270" y="150" width="30" height="30" fill="#dcebff"/><rect x="300" y="150" width="30" height="30" fill="#e4efff"/><rect x="330" y="150" width="30" height="30" fill="#e8f2ff"/><rect x="0" y="180" width="30" height="30" fill="#dcebff"/><rect x="30" y="180" width="30" height="30" fill="#c5deff"/><rect x="60" y="180" width="30" height="30" fill="#a2cbff"/><rect x="90" y="180" width="30" height="30" fill="#78b6ff"/><rect x="120" y="180" width="30" height="30" fill="#77b6ff"/><rect x="150" y="180" width="30" height="30" fill="#9cc7ff"/><rect x="180" y="180" width="30" height="30" fill="#afd2ff"/><rect x="210" y="180" width="30" height="30" fill="#aed1ff"/><rect x="240" y="180" width="30" height="30" fill="#abcfff"/><rect x="270" y="180" width="30" height="30" fill="#bbd8ff"/><rect x="300" y="180" width="30" height="30" fill="#d4e7ff"/><rect x="330" y="180" width="30" height="30" fill="#e4efff"/><rect x="0" y="210" width="30" height="30" fill="#e4f0ff"/><rect x="30" y="210" width="30" height="30" fill="#daeaff"/><rect x="60" y="210" width="30" height="30" fill="#cbe1ff"/><rect x="90" y="210" width="30" height="30" fill="#bedaff"/><rect x="120" y="210" width="30" height="30" fill="#bcd9ff"/><rect x="150" y="210" width="30" height="30" fill="#bddaff"/><rect x="180" y="210" width="30" height="30" fill="#abd0ff"/><rect x="210" y="210" width="30" height="30" fill="#71b3ff"/><rect x="240" y="210" width="30" height="30" fill="#4ba1ff"/><rect x="270" y="210" width="30" height="30" fill="#7ab7ff"/><rect x="300" y="210" width="30" height="30" fill="#bbd9ff"/><rect x="330" y="210" width="30" height="30" fill="#ddebff"/><rect x="0" y="240" width="30" height="30" fill="#e8f2ff"/><rect x="30" y="240" width="30" height="30" fill="#e5f0ff"/><rect x="60" y="240" width="30" height="30" fill="#e0eeff"/><rect x="90" y="240" width="30" height="30" fill="#dcebff"/><rect x="120" y="240" width="30" height="30" fill="#d9eaff"/><rect x="150" y="240" width="30" height="30" fill="#cfe4ff"/><rect x="180" y="240" width="30" height="30" fill="#a9ceff"/><rect x="210" y="240" width="30" height="30" fill="#4ba1ff"/><rect x="240" y="240" width="30" height="30" fill="#2678d4"/><rect x="270" y="240" width="30" height="30" fill="#4ea2ff"/><rect x="300" y="240" width="30" height="30" fill="#aed1ff"/><rect x="330" y="240" width="30" height="30" fill="#d9e9ff"/><rect x="0" y="270" width="30" height="30" fill="#eaf3ff"/><rect x="30" y="270" width="30" height="30" fill="#e9f2ff"/><rect x="60" y="270" width="30" height="30" fill="#e8f2ff"/><rect x="90" y="270" width="30" height="30" fill="#e7f1ff"/><rect x="120" y="270" width="30" height="30" fill="#e5f0ff"/><rect x="150" y="270" width="30" height="30" fill="#daeaff"/><rect x="180" y="270" width="30" height="30" fill="#bad8ff"/><rect x="210" y="270" width="30" height="30" fill="#7ab7ff"/><rect x="240" y="270" width="30" height="30" fill="#4ea2ff"/><rect x="270" y="270" width="30" height="30" fill="#7bb7ff"/><rect x="300" y="270" width="30" height="30" fill="#bbd9ff"/><rect x="330" y="270" width="30" height="30" fill="#ddebff"/><rect x="0" y="300" width="30" height="30" fill="#eaf3ff"/><rect x="30" y="300" width="30" height="30" fill="#eaf3ff"/><rect x="60" y="300" width="30" height="30" fill="#eaf3ff"/><rect x="90" y="300" width="30" height="30" fill="#e9f3ff"/><rect x="120" y="300" width="30" height="30" fill="#e8f2ff"/><rect x="150" y="300" width="30" height="30" fill="#e3efff"/><rect x="180" y="300" width="30" height="30" fill="#d4e6ff"/><rect x="210" y="300" width="30" height="30" fill="#bbd9ff"/><rect x="240" y="300" width="30" height="30" fill="#aed1ff"/><rect x="270" y="300" width="30" height="30" fill="#bbd9ff"/><rect x="300" y="300" width="30" height="30" fill="#d4e7ff"/><rect x="330" y="300" width="30" height="30" fill="#e4efff"/><rect x="0" y="330" width="30" height="30" fill="#eaf3ff"/><rect x="30" y="330" width="30" height="30" fill="#eaf3ff"/><rect x="60" y="330" width="30" height="30" fill="#eaf3ff"/><rect x="90" y="330" width="30" height="30" fill="#eaf3ff"/><rect x="120" y="330" width="30" height="30" fill="#eaf3ff"/><rect x="150" y="330" width="30" height="30" fill="#e8f2ff"/><rect x="180" y="330" width="30" height="30" fill="#e4efff"/><rect x="210" y="330" width="30" height="30" fill="#ddebff"/><rect x="240" y="330" width="30" height="30" fill="#d9e9ff"/><rect x="270" y="330" width="30" height="30" fill="#ddebff"/><rect x="300" y="330" width="30" height="30" fill="#e4efff"/><rect x="330" y="330" width="30" height="30" fill="#e8f2ff"/></g>
</svg>