<svg role="img" aria-label="Streamplot" xmlns="http://www.w3.org/2000/svg" width="420" height="360" viewBox="0 0 420 360"><title>Streamplot</title><desc>Vector-field streamlines with arrowheads, colored by speed on the house blue ramp.</desc>
  <defs><marker id="arw" markerWidth="7" markerHeight="7" refX="5" refY="3" orient="auto"><path d="M0,0 L6,3 L0,6 Z" fill="#0A4DA0"/></marker></defs>
  <rect width="420" height="360" fill="white"/><path d="M49.4,338.7 L43.1,338.4 L36.8,338.2 L30.5,337.8 L24.2,337.4 L17.9,336.8 L11.7,335.9 L5.5,334.9" fill="none" stroke="#077eff" stroke-width="1.7" marker-end="url(#arw)" opacity="0.9"/><path d="M102.4,337.0 L96.9,333.9 L91.1,331.5 L85.0,329.8 L78.8,328.6 L72.6,327.9 L66.3,327.5 L60.0,327.3 L53.7,327.3 L47.4,327.4 L41.1,327.5 L34.8,327.6 L28.5,327.5 L22.2,327.3 L15.9,327.0 L9.6,326.4 L3.4,325.6" fill="none" stroke="#1986ff" stroke-width="1.7" marker-end="url(#arw)" opacity="0.9"/><path d="M156.5,335.8 L154.1,329.9 L151.3,324.3 L147.9,318.9 L144.0,313.9 L139.7,309.3 L135.0,305.0 L129.9,301.3 L124.5,298.1 L118.8,295.3 L112.9,293.2 L106.8,291.5 L100.7,290.3 L94.4,289.6 L88.1,289.3 L81.8,289.3 L75.5,289.5 L69.2,290.0 L63.0,290.7 L56.7,291.5 L50.5,292.3 L44.2,293.1 L38.0,293.9 L31.7,294.6 L25.4,295.2 L19.2,295.6 L12.9,295.9 L6.6,295.9 L0.3,295.7" fill="none" stroke="#036be0" stroke-width="1.7" marker-end="url(#arw)" opacity="0.9"/><path d="M209.7,335.7 L208.9,329.4 L207.7,323.1 L206.1,317.0 L204.2,310.9 L202.0,305.0 L199.4,299.2 L196.5,293.5 L193.4,288.0 L190.0,282.7 L186.4,277.4 L182.6,272.4 L178.6,267.5 L174.4,262.7 L170.0,258.2 L165.4,253.8 L160.6,249.7 L155.6,245.9 L150.4,242.3 L145.0,239.1 L139.3,236.3 L133.5,234.0 L127.4,232.2 L121.3,230.9 L115.0,230.2 L108.7,230.1 L102.4,230.4 L96.2,231.1 L89.9,232.1 L83.8,233.4 L77.7,235.0 L71.6,236.6 L65.5,238.3 L59.5,240.1 L53.4,241.9 L47.4,243.7 L41.3,245.4 L35.2,247.0 L29.1,248.5 L23.0,249.9 L16.8,251.1 L10.5,252.0 L4.3,252.8" fill="none" stroke="#065dc2" stroke-width="1.7" marker-end="url(#arw)" opacity="0.9"/><path d="M262.9,335.7 L263.2,329.3 L263.2,323.0 L262.6,316.7 L261.6,310.4 L260.2,304.2 L258.3,298.1 L256.2,292.2 L253.7,286.3 L251.0,280.6 L248.2,274.9 L245.2,269.3 L242.1,263.8 L239.0,258.3 L235.8,252.8 L232.5,247.3 L229.3,241.9 L226.1,236.4 L223.0,230.9 L220.0,225.3 L217.1,219.7 L214.3,214.0 L211.8,208.1 L209.5,202.2 L207.5,196.2 L206.0,190.0 L205.1,183.7 L204.8,177.4 L205.3,171.1 L206.6,164.9 L208.8,158.9 L211.7,153.3 L215.2,148.0 L219.3,143.2 L223.9,138.8 L228.8,134.9 L234.1,131.4 L239.6,128.3 L245.4,125.8 L251.3,123.7 L257.4,122.2 L263.7,121.3 L270.0,120.9 L276.2,121.0 L282.5,121.7" fill="none" stroke="#036de4" stroke-width="1.7" marker-end="url(#arw)" opacity="0.9"/><path d="M317.1,336.5 L321.4,331.8 L326.0,327.4 L330.9,323.4 L336.2,320.1 L342.1,317.8 L348.3,316.7 L354.6,316.7 L360.8,317.2 L367.1,318.1 L373.3,319.0 L379.6,319.7 L385.8,320.3 L392.1,320.6 L398.4,320.6 L404.7,320.2 L410.9,319.3 L417.1,318.0" fill="none" stroke="#3393ff" stroke-width="1.7" marker-end="url(#arw)" opacity="0.9"/><path d="M370.6,338.6 L376.9,338.3 L383.2,338.0 L389.5,337.5 L395.8,337.0 L402.0,336.2 L408.2,335.1 L414.4,333.7" fill="none" stroke="#2a8fff" stroke-width="1.7" marker-end="url(#arw)" opacity="0.9"/><path d="M49.4,286.3 L43.2,287.3 L36.9,288.1 L30.7,288.9 L24.4,289.6 L18.1,290.1 L11.8,290.4 L5.5,290.5" fill="none" stroke="#0660c7" stroke-width="1.7" marker-end="url(#arw)" opacity="0.9"/><path d="M101.9,285.4 L95.6,284.7 L89.3,284.5 L83.0,284.5 L76.7,284.9 L70.5,285.4 L64.2,286.1 L58.0,287.0 L51.7,287.8 L45.5,288.7 L39.2,289.6 L33.0,290.4 L26.7,291.1 L20.5,291.6 L14.2,292.0 L7.9,292.2 L1.6,292.1" fill="none" stroke="#036ce2" stroke-width="1.7" marker-end="url(#arw)" opacity="0.9"/><path d="M155.2,283.7 L150.4,279.6 L145.4,275.8 L140.1,272.4 L134.5,269.4 L128.7,266.8 L122.8,264.8 L116.7,263.2 L110.5,262.1 L104.2,261.5 L97.9,261.3 L91.6,261.5 L85.3,261.9 L79.1,262.7 L72.8,263.6 L66.6,264.7 L60.4,265.9 L54.3,267.1 L48.1,268.4 L41.9,269.6 L35.7,270.7 L29.5,271.8 L23.3,272.7 L17.0,273.5 L10.7,274.1 L4.5,274.4" fill="none" stroke="#0467d8" stroke-width="1.7" marker-end="url(#arw)" opacity="0.9"/><path d="M208.5,283.1 L205.3,277.6 L202.0,272.2 L198.5,267.0 L194.8,261.8 L191.0,256.7 L187.1,251.7 L183.0,246.9 L178.8,242.1 L174.5,237.5 L170.1,233.0 L165.5,228.7 L160.7,224.5 L155.8,220.6 L150.6,217.0 L145.2,213.7 L139.5,211.0 L133.6,208.9 L127.4,207.4 L121.2,206.7 L114.9,206.7 L108.6,207.4 L102.4,208.5 L96.3,210.1 L90.3,211.9 L84.3,214.0 L78.4,216.1 L72.5,218.4 L66.6,220.7 L60.8,223.0 L54.9,225.3 L49.0,227.6 L43.1,229.7 L37.1,231.7 L31.1,233.6 L25.0,235.4 L18.9,236.9 L12.8,238.2 L6.6,239.3 L0.3,240.2" fill="none" stroke="#0562cb" stroke-width="1.7" marker-end="url(#arw)" opacity="0.9"/><path d="M261.2,283.0 L258.4,277.3 L255.4,271.7 L252.4,266.1 L249.2,260.6 L246.0,255.2 L242.8,249.7 L239.7,244.2 L236.5,238.7 L233.4,233.2 L230.5,227.6 L227.6,221.9 L225.0,216.1 L222.5,210.3 L220.4,204.3 L218.7,198.2 L217.4,192.0 L216.7,185.7 L216.6,179.3 L217.4,173.0 L219.0,166.9 L221.5,161.0 L224.6,155.6 L228.5,150.5 L232.9,146.0 L237.8,142.0 L243.1,138.6 L248.7,135.7 L254.6,133.4 L260.6,131.7 L266.8,130.6 L273.1,130.2 L279.4,130.3 L285.7,131.0 L291.9,132.2 L298.0,133.8 L303.9,135.8 L309.8,138.2 L315.5,140.9 L321.1,143.9 L326.5,147.0 L331.8,150.4 L337.1,154.0 L342.2,157.7 L347.2,161.5" fill="none" stroke="#0176f7" stroke-width="1.7" marker-end="url(#arw)" opacity="0.9"/><path d="M313.1,283.4 L309.0,278.5 L304.8,273.8 L300.6,269.0 L296.4,264.3 L292.3,259.5 L288.3,254.6 L284.4,249.6 L280.6,244.5 L277.0,239.3 L273.7,233.9 L270.5,228.4 L267.7,222.7 L265.3,216.9 L263.4,210.8 L262.2,204.6 L261.7,198.3 L262.4,192.0 L264.3,185.9 L267.6,180.5 L272.1,176.2 L277.6,173.1 L283.7,171.4 L289.9,171.0 L296.2,171.6 L302.3,173.1 L308.2,175.3 L313.8,178.1 L319.2,181.5 L324.2,185.3 L329.0,189.4 L333.4,194.0 L337.5,198.8 L341.3,203.9 L344.6,209.3 L347.5,214.9 L350.0,220.7 L352.1,226.7 L353.6,232.9 L354.6,239.2 L355.1,245.5 L355.2,251.9 L354.9,258.2 L354.3,264.5 L353.7,270.8" fill="none" stroke="#70b1ff" stroke-width="1.7" marker-end="url(#arw)" opacity="0.9"/><path d="M369.0,288.7 L373.0,293.6 L377.8,297.6 L383.3,300.8 L389.1,303.1 L395.2,304.7 L401.5,305.5 L407.8,305.7 L414.0,305.1" fill="none" stroke="#74b3ff" stroke-width="1.7" marker-end="url(#arw)" opacity="0.9"/><path d="M49.5,234.0 L43.5,235.9 L37.5,237.8 L31.4,239.5 L25.3,241.1 L19.2,242.6 L13.0,243.8 L6.8,244.8 L0.5,245.5" fill="none" stroke="#065fc6" stroke-width="1.7" marker-end="url(#arw)" opacity="0.9"/><path d="M101.9,233.1 L95.6,233.8 L89.4,234.8 L83.2,236.0 L77.1,237.5 L71.0,239.1 L64.9,240.8 L58.8,242.5 L52.8,244.3 L46.7,246.0 L40.6,247.6 L34.5,249.2 L28.4,250.6 L22.2,251.9 L16.0,253.0 L9.8,253.9 L3.5,254.6" fill="none" stroke="#026fe9" stroke-width="1.7" marker-end="url(#arw)" opacity="0.9"/><path d="M155.0,231.1 L149.7,227.6 L144.2,224.5 L138.5,221.8 L132.5,219.7 L126.4,218.2 L120.2,217.3 L113.9,217.1 L107.6,217.4 L101.4,218.2 L95.2,219.4 L89.1,220.9 L83.0,222.7 L77.0,224.6 L71.0,226.5 L65.0,228.6 L59.1,230.7 L53.1,232.7 L47.1,234.7 L41.1,236.7 L35.1,238.5 L29.0,240.2 L22.9,241.7 L16.8,243.1 L10.6,244.2 L4.3,245.1" fill="none" stroke="#0271ed" stroke-width="1.7" marker-end="url(#arw)" opacity="0.9"/><path d="M208.3,230.2 L205.0,224.8 L201.8,219.4 L198.7,213.9 L195.7,208.3 L192.8,202.6 L190.2,196.8 L187.9,190.9 L186.0,184.9 L184.7,178.7 L184.1,172.3 L184.3,166.0 L185.5,159.8 L187.6,153.8 L190.5,148.2 L194.1,142.9 L198.1,138.0 L202.5,133.5 L207.2,129.3 L212.2,125.4 L217.4,121.8 L222.8,118.5 L228.4,115.6 L234.1,113.0 L240.0,110.8 L246.1,109.0 L252.2,107.7 L258.5,106.9 L264.8,106.6 L271.1,106.7 L277.3,107.4 L283.5,108.5 L289.7,109.9 L295.7,111.8 L301.6,114.0 L307.4,116.4 L313.1,119.1 L318.7,122.0 L324.3,125.1 L329.7,128.3 L335.0,131.7 L340.3,135.2 L345.5,138.8 L350.6,142.4 L355.7,146.2" fill="none" stroke="#036ee5" stroke-width="1.7" marker-end="url(#arw)" opacity="0.9"/><path d="M261.0,230.1 L258.2,224.5 L255.7,218.6 L253.5,212.7 L251.8,206.6 L250.7,200.3 L250.4,194.0 L250.9,187.6 L252.5,181.5 L255.2,175.8 L259.0,170.8 L263.8,166.6 L269.2,163.5 L275.2,161.4 L281.4,160.3 L287.7,160.1 L293.9,160.8 L300.1,162.2 L306.0,164.2 L311.8,166.7 L317.4,169.7 L322.7,173.1 L327.8,176.8 L332.7,180.8 L337.4,185.0 L341.8,189.6 L346.0,194.3 L350.0,199.3 L353.6,204.4 L357.0,209.8 L360.1,215.3 L362.9,221.0 L365.3,226.9 L367.5,232.8 L369.3,238.9 L370.8,245.1 L372.1,251.3 L373.3,257.5 L374.6,263.8 L376.1,269.9 L378.1,275.9 L381.0,281.6 L384.8,286.6 L389.6,290.7 L395.0,293.8" fill="none" stroke="#1d88ff" stroke-width="1.7" marker-end="url(#arw)" opacity="0.9"/><path d="M312.0,233.7 L306.0,232.3 L300.7,228.8 L296.4,224.2 L293.2,218.8 L291.3,212.8 L291.6,206.5 L295.5,201.8 L301.6,201.0 L307.5,203.1 L312.4,206.9 L316.4,211.9 L319.0,217.6 L320.0,223.9 L318.5,229.9 L313.6,233.6 L307.5,233.1 L302.0,230.0 L297.5,225.7 L293.9,220.4 L291.5,214.6 L291.1,208.3 L293.8,202.8 L299.5,200.7 L305.6,202.1 L310.9,205.4 L315.2,210.0 L318.4,215.5 L320.0,221.6 L319.5,227.9 L315.9,232.8 L309.9,233.9 L304.1,231.6 L299.2,227.6 L295.2,222.7 L292.2,217.1 L290.8,211.0 L292.0,204.9 L296.7,201.0 L302.9,201.0 L308.6,203.6 L313.4,207.7 L317.1,212.8 L319.5,218.6 L320.2,224.9" fill="none" stroke="#89bdff" stroke-width="1.7" marker-end="url(#arw)" opacity="0.9"/><path d="M368.4,236.0 L370.1,242.1 L371.5,248.3 L372.7,254.5 L374.0,260.8 L375.3,267.0 L377.1,273.1 L379.5,278.9 L382.8,284.3 L387.2,288.9 L392.3,292.5 L398.1,295.0 L404.2,296.5 L410.5,297.0 L416.8,296.7" fill="none" stroke="#489eff" stroke-width="1.7" marker-end="url(#arw)" opacity="0.9"/><path d="M50.2,182.1 L45.3,186.2 L40.3,190.0 L35.1,193.5 L29.6,196.8 L24.1,199.7 L18.3,202.4 L12.5,204.7 L6.5,206.8 L0.4,208.5" fill="none" stroke="#0273f0" stroke-width="1.7" marker-end="url(#arw)" opacity="0.9"/><path d="M102.3,181.6 L96.9,184.9 L91.5,188.3 L86.2,191.6 L80.8,194.8 L75.3,198.1 L69.9,201.2 L64.4,204.3 L58.8,207.3 L53.2,210.2 L47.5,213.0 L41.8,215.6 L36.0,218.0 L30.1,220.3 L24.2,222.4 L18.1,224.3 L12.0,225.9 L5.9,227.3" fill="none" stroke="#3695ff" stroke-width="1.7" marker-end="url(#arw)" opacity="0.9"/><path d="M155.8,177.3 L152.6,171.9 L149.7,166.2 L147.6,160.3 L147.7,154.0 L150.6,148.4 L154.8,143.7 L159.5,139.5 L164.4,135.5 L169.3,131.6 L174.4,127.8 L179.5,124.1 L184.7,120.5 L190.0,117.0 L195.3,113.6 L200.7,110.4 L206.2,107.3 L211.8,104.3 L217.5,101.6 L223.3,99.1 L229.2,96.9 L235.2,95.1 L241.4,93.5 L247.6,92.4 L253.8,91.8 L260.1,91.6 L266.4,91.8 L272.7,92.6 L278.9,93.7 L285.0,95.2 L291.0,97.1 L296.9,99.3 L302.7,101.7 L308.4,104.4 L314.1,107.3 L319.6,110.3 L325.1,113.5 L330.4,116.8 L335.7,120.2 L341.0,123.7 L346.2,127.3 L351.4,130.9 L356.5,134.6 L361.6,138.3 L366.7,142.0" fill="none" stroke="#4c9fff" stroke-width="1.7" marker-end="url(#arw)" opacity="0.9"/><path d="M210.1,176.8 L210.9,170.5 L212.5,164.4 L215.0,158.6 L218.1,153.1 L221.9,148.0 L226.2,143.4 L231.0,139.2 L236.2,135.6 L241.6,132.4 L247.4,129.8 L253.3,127.7 L259.4,126.2 L265.6,125.3 L271.9,124.9 L278.2,125.1 L284.5,125.8 L290.7,127.0 L296.8,128.6 L302.7,130.6 L308.6,133.0 L314.3,135.6 L319.9,138.5 L325.4,141.6 L330.8,144.9 L336.1,148.4 L341.2,152.0 L346.3,155.8 L351.3,159.7 L356.2,163.6 L361.1,167.7 L365.9,171.8 L370.6,176.0 L375.3,180.3 L379.9,184.6 L384.5,188.9 L389.1,193.2 L393.8,197.5 L398.5,201.8 L403.2,205.9 L408.1,209.9 L413.2,213.7 L418.5,217.1" fill="none" stroke="#1f89ff" stroke-width="1.7" marker-end="url(#arw)" opacity="0.9"/><path d="M264.4,177.4 L268.9,173.1 L274.4,169.9 L280.3,168.0 L286.6,167.2 L292.9,167.5 L299.1,168.6 L305.1,170.5 L310.9,173.0 L316.4,176.0 L321.7,179.5 L326.7,183.3 L331.4,187.5 L335.9,192.0 L340.1,196.8 L343.9,201.8 L347.4,207.1 L350.5,212.6 L353.3,218.3 L355.6,224.2 L357.5,230.2 L359.0,236.4 L360.1,242.7 L360.7,249.0 L361.1,255.3 L361.3,261.7 L361.4,268.0 L361.8,274.4 L362.9,280.6 L364.9,286.6 L368.2,292.0 L372.6,296.5 L377.8,300.1 L383.4,302.9 L389.4,305.0 L395.6,306.3 L401.8,307.0 L408.1,307.0 L414.4,306.3" fill="none" stroke="#4c9fff" stroke-width="1.7" marker-end="url(#arw)" opacity="0.9"/><path d="M317.7,181.7 L322.8,185.4 L327.6,189.5 L332.0,194.0 L336.2,198.8 L339.9,203.9 L343.3,209.3 L346.2,214.9 L348.7,220.7 L350.6,226.8 L352.1,232.9 L353.0,239.2 L353.4,245.6 L353.3,251.9 L352.8,258.2 L352.0,264.5 L351.0,270.8 L350.0,277.1 L349.6,283.4 L350.6,289.6 L353.7,295.1 L358.3,299.4 L363.6,302.8 L369.3,305.7 L375.1,308.0 L381.1,309.9 L387.3,311.3 L393.5,312.2 L399.8,312.5 L406.1,312.4 L412.3,311.7 L418.5,310.5" fill="none" stroke="#3695ff" stroke-width="1.7" marker-end="url(#arw)" opacity="0.9"/><path d="M369.8,182.2 L374.3,186.6 L378.8,191.1 L383.2,195.6 L387.6,200.2 L392.0,204.7 L396.4,209.3 L400.8,213.8 L405.4,218.1 L410.2,222.3 L415.2,226.1" fill="none" stroke="#0273f0" stroke-width="1.7" marker-end="url(#arw)" opacity="0.9"/><path d="M52.0,130.2 L50.6,136.4 L48.8,142.5 L46.5,148.4 L43.8,154.1 L40.5,159.5 L36.8,164.7 L32.7,169.5 L28.2,173.9 L23.3,178.0 L18.2,181.6 L12.8,184.9 L7.2,187.8 L1.4,190.3" fill="none" stroke="#0176f7" stroke-width="1.7" marker-end="url(#arw)" opacity="0.9"/><path d="M105.5,130.2 L106.2,136.5 L106.2,142.8 L105.2,149.1 L103.2,155.1 L100.4,160.8 L96.8,166.0 L92.8,170.9 L88.4,175.5 L83.8,179.8 L79.0,183.9 L74.0,187.8 L68.9,191.6 L63.8,195.2 L58.5,198.6 L53.1,201.9 L47.6,205.0 L42.0,207.9 L36.3,210.7 L30.5,213.2 L24.7,215.6 L18.7,217.7 L12.7,219.5 L6.6,221.1 L0.4,222.3" fill="none" stroke="#3b97ff" stroke-width="1.7" marker-end="url(#arw)" opacity="0.9"/><path d="M160.4,125.8 L166.1,123.1 L171.7,120.2 L177.2,117.1 L182.7,114.0 L188.2,110.9 L193.7,107.8 L199.3,104.8 L204.9,101.9 L210.5,99.2 L216.3,96.6 L222.1,94.2 L228.1,92.1 L234.1,90.4 L240.3,88.9 L246.5,87.9 L252.8,87.3 L259.1,87.2 L265.3,87.5 L271.6,88.3 L277.8,89.5 L283.9,91.0 L289.9,92.9 L295.8,95.1 L301.6,97.6 L307.3,100.3 L312.9,103.2 L318.5,106.2 L323.9,109.4 L329.3,112.7 L334.6,116.1 L339.9,119.6 L345.1,123.2 L350.3,126.8 L355.4,130.5 L360.5,134.1 L365.7,137.9 L370.8,141.6 L375.9,145.3 L381.0,149.0 L386.2,152.6 L391.4,156.2 L396.6,159.7 L401.9,163.1 L407.4,166.4" fill="none" stroke="#5aa7ff" stroke-width="1.7" marker-end="url(#arw)" opacity="0.9"/><path d="M212.5,125.2 L217.7,121.6 L223.1,118.3 L228.7,115.4 L234.5,112.8 L240.4,110.7 L246.5,108.9 L252.6,107.7 L258.9,106.9 L265.2,106.6 L271.5,106.8 L277.7,107.4 L283.9,108.5 L290.1,110.0 L296.1,111.9 L302.0,114.1 L307.8,116.6 L313.5,119.3 L319.1,122.2 L324.6,125.3 L330.0,128.5 L335.3,131.9 L340.6,135.4 L345.8,139.0 L350.9,142.7 L356.0,146.4 L361.1,150.2 L366.1,154.1 L371.1,157.9 L376.1,161.8 L381.0,165.7 L386.0,169.6 L391.1,173.4 L396.1,177.2 L401.3,180.9 L406.5,184.4 L411.8,187.8 L417.3,190.9" fill="none" stroke="#1786ff" stroke-width="1.7" marker-end="url(#arw)" opacity="0.9"/><path d="M265.6,126.6 L271.9,126.2 L278.2,126.4 L284.5,127.0 L290.7,128.2 L296.7,129.8 L302.7,131.8 L308.6,134.1 L314.3,136.8 L319.9,139.7 L325.4,142.8 L330.8,146.1 L336.0,149.6 L341.2,153.2 L346.3,157.0 L351.3,160.9 L356.2,164.9 L361.0,169.0 L365.7,173.2 L370.4,177.4 L375.1,181.7 L379.7,186.0 L384.3,190.4 L388.8,194.7 L393.4,199.1 L398.1,203.4 L402.8,207.6 L407.6,211.7 L412.6,215.5 L417.9,219.0" fill="none" stroke="#057dff" stroke-width="1.7" marker-end="url(#arw)" opacity="0.9"/><path d="M317.8,128.5 L323.3,131.5 L328.8,134.7 L334.1,138.1 L339.4,141.6 L344.6,145.2 L349.7,148.9 L354.7,152.7 L359.7,156.6 L364.6,160.6 L369.6,164.5 L374.4,168.6 L379.3,172.6 L384.2,176.6 L389.0,180.7 L393.9,184.6 L398.9,188.6 L404.0,192.3 L409.1,196.0 L414.4,199.4 L420.0,202.5" fill="none" stroke="#0469db" stroke-width="1.7" marker-end="url(#arw)" opacity="0.9"/><path d="M370.1,128.9 L375.2,132.5 L380.4,136.2 L385.6,139.7 L390.9,143.2 L396.2,146.6 L401.6,149.9 L407.1,153.1 L412.6,156.1 L418.3,158.8" fill="none" stroke="#0954ae" stroke-width="1.7" marker-end="url(#arw)" opacity="0.9"/><path d="M52.3,77.3 L51.9,83.6 L51.6,90.0 L51.3,96.3 L51.1,102.7 L50.8,109.0 L50.3,115.3 L49.6,121.7 L48.7,127.9 L47.4,134.2 L45.6,140.3 L43.4,146.2 L40.7,151.9 L37.6,157.4 L33.9,162.6 L29.8,167.4 L25.4,171.9 L20.5,176.0 L15.4,179.7 L10.0,183.0 L4.4,185.8" fill="none" stroke="#046add" stroke-width="1.7" marker-end="url(#arw)" opacity="0.9"/><path d="M105.6,77.2 L107.1,83.4 L109.0,89.5 L111.1,95.4 L113.6,101.3 L116.3,107.0 L119.3,112.6 L122.7,118.0 L126.4,123.1 L130.7,127.7 L135.7,131.5 L141.6,133.5 L147.9,133.3 L153.9,131.5 L159.7,128.9 L165.3,126.0 L170.8,122.9 L176.2,119.7 L181.7,116.5 L187.1,113.2 L192.6,110.1 L198.1,107.0 L203.6,104.0 L209.3,101.2 L215.0,98.5 L220.8,96.0 L226.7,93.8 L232.7,91.9 L238.8,90.4 L245.0,89.2 L251.3,88.5 L257.5,88.2 L263.8,88.4 L270.1,89.0 L276.3,90.1 L282.5,91.6 L288.5,93.4 L294.4,95.5 L300.3,97.9 L306.0,100.5 L311.6,103.3 L317.2,106.3 L322.7,109.5 L328.1,112.8 L333.4,116.1" fill="none" stroke="#0e81ff" stroke-width="1.7" marker-end="url(#arw)" opacity="0.9"/><path d="M160.6,74.8 L166.8,75.4 L173.1,75.1 L179.3,74.2 L185.5,72.8 L191.6,71.2 L197.6,69.3 L203.6,67.5 L209.7,65.6 L215.7,63.9 L221.8,62.4 L228.0,61.2 L234.3,60.3 L240.5,59.8 L246.8,59.7 L253.1,60.2 L259.3,61.1 L265.5,62.4 L271.6,64.1 L277.5,66.1 L283.4,68.4 L289.2,71.0 L294.8,73.8 L300.4,76.8 L305.9,79.9 L311.3,83.1 L316.7,86.4 L322.0,89.8 L327.3,93.3 L332.5,96.9 L337.7,100.5 L342.8,104.1 L348.0,107.8 L353.1,111.5 L358.2,115.2 L363.4,118.9 L368.5,122.6 L373.6,126.2 L378.8,129.8 L384.0,133.4 L389.3,136.9 L394.6,140.3 L400.0,143.6 L405.5,146.8 L411.0,149.8" fill="none" stroke="#53a3ff" stroke-width="1.7" marker-end="url(#arw)" opacity="0.9"/><path d="M213.0,73.1 L219.0,71.3 L225.1,69.7 L231.3,68.4 L237.5,67.5 L243.8,67.0 L250.1,66.9 L256.4,67.2 L262.6,68.1 L268.8,69.3 L274.9,71.0 L280.9,72.9 L286.8,75.2 L292.5,77.7 L298.2,80.5 L303.8,83.4 L309.3,86.5 L314.8,89.7 L320.2,93.0 L325.5,96.4 L330.7,99.9 L336.0,103.4 L341.2,107.0 L346.3,110.6 L351.5,114.3 L356.6,117.9 L361.8,121.6 L366.9,125.3 L372.1,129.0 L377.2,132.6 L382.4,136.2 L387.6,139.7 L392.9,143.2 L398.3,146.6 L403.7,149.8 L409.2,152.9 L414.8,155.8" fill="none" stroke="#258cff" stroke-width="1.7" marker-end="url(#arw)" opacity="0.9"/><path d="M265.6,74.6 L271.8,75.8 L277.9,77.4 L283.9,79.3 L289.8,81.6 L295.6,84.1 L301.3,86.8 L306.9,89.7 L312.4,92.7 L317.9,95.9 L323.2,99.2 L328.6,102.6 L333.9,106.1 L339.1,109.6 L344.3,113.2 L349.5,116.8 L354.6,120.5 L359.7,124.1 L364.9,127.8 L370.0,131.5 L375.2,135.2 L380.3,138.8 L385.5,142.4 L390.8,145.9 L396.1,149.3 L401.5,152.6 L406.9,155.8 L412.5,158.8 L418.1,161.6" fill="none" stroke="#0079fe" stroke-width="1.7" marker-end="url(#arw)" opacity="0.9"/><path d="M317.6,75.9 L322.7,79.6 L327.9,83.3 L333.0,87.0 L338.0,90.8 L343.1,94.5 L348.2,98.3 L353.3,102.1 L358.4,105.8 L363.5,109.5 L368.6,113.2 L373.7,116.9 L378.9,120.5 L384.1,124.1 L389.4,127.6 L394.7,131.0 L400.1,134.3 L405.6,137.4 L411.1,140.4 L416.8,143.2" fill="none" stroke="#0660c9" stroke-width="1.7" marker-end="url(#arw)" opacity="0.9"/><path d="M369.9,76.2 L374.8,80.2 L379.7,84.2 L384.7,88.0 L389.8,91.7 L395.0,95.3 L400.3,98.8 L405.7,102.1 L411.2,105.2 L416.8,108.1" fill="none" stroke="#0a4da0" stroke-width="1.7" marker-end="url(#arw)" opacity="0.9"/><path d="M51.2,24.1 L48.9,30.0 L46.7,35.9 L44.7,42.0 L43.0,48.1 L41.4,54.2 L40.1,60.4 L38.9,66.7 L37.9,72.9 L37.1,79.2 L36.3,85.6 L35.7,91.9 L35.0,98.2 L34.3,104.5 L33.4,110.8 L32.4,117.1 L31.1,123.3 L29.5,129.4 L27.5,135.4 L25.0,141.3 L22.0,146.9 L18.6,152.2 L14.6,157.1 L10.2,161.6 L5.3,165.7 L0.1,169.2" fill="none" stroke="#0857b4" stroke-width="1.7" marker-end="url(#arw)" opacity="0.9"/><path d="M103.9,24.2 L102.0,30.2 L100.5,36.4 L99.3,42.6 L98.6,48.9 L98.2,55.3 L98.2,61.6 L98.6,68.0 L99.3,74.3 L100.4,80.5 L101.7,86.7 L103.3,92.9 L105.1,99.0 L107.1,105.0 L109.2,111.0 L111.4,117.0 L113.6,122.9 L115.7,128.9 L117.6,134.9 L119.0,141.1 L119.3,147.5 L117.9,153.6 L114.9,159.2 L111.1,164.2 L106.7,168.8 L102.0,173.1 L97.2,177.1 L92.3,181.1 L87.2,184.9 L82.1,188.5 L76.9,192.1 L71.6,195.6 L66.2,198.9 L60.8,202.2 L55.3,205.3 L49.8,208.3 L44.1,211.1 L38.4,213.7 L32.6,216.2 L26.7,218.5 L20.7,220.5 L14.7,222.4 L8.6,223.9 L2.4,225.2" fill="none" stroke="#036fe7" stroke-width="1.7" marker-end="url(#arw)" opacity="0.9"/><path d="M156.4,24.2 L155.1,30.4 L155.1,36.7 L156.7,42.8 L160.2,48.1 L165.1,51.9 L171.0,54.0 L177.3,54.8 L183.6,54.6 L189.8,53.7 L196.0,52.6 L202.1,51.2 L208.3,49.8 L214.5,48.4 L220.7,47.3 L226.9,46.5 L233.2,46.2 L239.5,46.2 L245.8,46.8 L252.0,47.8 L258.1,49.3 L264.1,51.1 L270.1,53.3 L275.9,55.7 L281.6,58.4 L287.2,61.3 L292.7,64.3 L298.2,67.5 L303.6,70.8 L308.9,74.2 L314.2,77.7 L319.4,81.2 L324.6,84.8 L329.8,88.4 L334.9,92.1 L340.0,95.8 L345.1,99.5 L350.2,103.3 L355.3,107.0 L360.4,110.7 L365.6,114.4 L370.7,118.1 L375.9,121.7 L381.1,125.3 L386.3,128.9" fill="none" stroke="#57a5ff" stroke-width="1.7" marker-end="url(#arw)" opacity="0.9"/><path d="M213.0,22.1 L219.2,23.5 L225.3,24.8 L231.5,26.3 L237.5,28.0 L243.5,30.0 L249.4,32.3 L255.2,34.8 L260.9,37.5 L266.5,40.3 L272.0,43.3 L277.5,46.5 L282.9,49.7 L288.3,53.1 L293.6,56.5 L298.8,60.0 L304.0,63.6 L309.2,67.2 L314.3,70.9 L319.5,74.6 L324.6,78.3 L329.6,82.1 L334.7,85.9 L339.8,89.7 L344.8,93.5 L349.9,97.3 L354.9,101.0 L360.0,104.8 L365.1,108.5 L370.2,112.3 L375.4,115.9 L380.5,119.5 L385.8,123.1 L391.1,126.5 L396.4,129.9 L401.8,133.1 L407.3,136.2 L412.9,139.1 L418.6,141.9" fill="none" stroke="#89beff" stroke-width="1.7" marker-end="url(#arw)" opacity="0.9"/><path d="M264.7,23.4 L269.4,27.7 L274.1,31.9 L279.0,35.9 L283.9,39.8 L288.9,43.8 L293.9,47.7 L298.8,51.6 L303.8,55.5 L308.8,59.4 L313.8,63.3 L318.7,67.2 L323.7,71.1 L328.7,75.0 L333.6,78.9 L338.6,82.8 L343.6,86.7 L348.6,90.6 L353.6,94.4 L358.6,98.2 L363.7,102.0 L368.8,105.8 L373.9,109.5 L379.0,113.1 L384.2,116.7 L389.5,120.2 L394.8,123.6 L400.2,126.9 L405.7,130.0 L411.3,133.0 L416.9,135.8" fill="none" stroke="#449bff" stroke-width="1.7" marker-end="url(#arw)" opacity="0.9"/><path d="M316.6,23.9 L320.0,29.2 L323.7,34.4 L327.6,39.4 L331.6,44.3 L335.8,49.0 L340.1,53.7 L344.5,58.2 L349.0,62.7 L353.6,67.0 L358.2,71.3 L363.0,75.5 L367.8,79.6 L372.7,83.6 L377.7,87.5 L382.7,91.3 L387.8,95.0 L393.0,98.6 L398.3,102.0 L403.7,105.4 L409.1,108.5 L414.7,111.5" fill="none" stroke="#046ade" stroke-width="1.7" marker-end="url(#arw)" opacity="0.9"/><path d="M369.1,23.9 L372.6,29.2 L376.3,34.4 L380.2,39.3 L384.3,44.1 L388.6,48.8 L393.1,53.2 L397.8,57.4 L402.7,61.5 L407.7,65.3 L412.8,69.0 L418.2,72.4" fill="none" stroke="#0952aa" stroke-width="1.7" marker-end="url(#arw)" opacity="0.9"/>
</svg>